<svg xmlns="http://www.w3.org/2000/svg" viewBox="0 0 1000 400" width="1000" height="400" role="img" aria-label="Shogo-nfrealmusic contribution graph, last 31 days">
<title>Shogo-nfrealmusic's contribution graph</title>
<defs>
  <linearGradient id="area" x1="0" y1="0" x2="0" y2="1">
    <stop offset="0" stop-color="#00FF41" stop-opacity="0.30"/>
    <stop offset="1" stop-color="#00FF41" stop-opacity="0.02"/>
  </linearGradient>
  <clipPath id="wipe"><rect x="0" y="0" width="0" height="400">
    <animate attributeName="width" from="0" to="1000" dur="1.5s" fill="freeze" calcMode="spline" keySplines="0.16 1 0.3 1" keyTimes="0;1"/>
  </rect></clipPath>
</defs>

<rect width="1000" height="400" rx="6" fill="#000000" stroke="#123D1E"/>

<text x="35" y="45" font-family="'Segoe UI', Ubuntu, Helvetica, Arial, sans-serif" font-size="24" font-weight="600" fill="#00FF41">Shogo-nfrealmusic's contribution graph</text>
<text x="35" y="66" font-family="ui-monospace, SFMono-Regular, 'Cascadia Mono', Menlo, monospace" font-size="12" letter-spacing="0.5" fill="#3F7A4F">LAST 31 DAYS</text>

<text transform="translate(28,205) rotate(-90)" text-anchor="middle" font-family="'Segoe UI', Ubuntu, Helvetica, Arial, sans-serif" font-size="13" fill="#3F7A4F">Contributions</text>
<text x="520" y="382" text-anchor="middle" font-family="'Segoe UI', Ubuntu, Helvetica, Arial, sans-serif" font-size="13" fill="#3F7A4F">Days</text>

<line x1="90" y1="330.0" x2="950" y2="330.0" stroke="#0E2A16"/>
<text x="78" y="334.0" text-anchor="end" font-family="ui-monospace, SFMono-Regular, 'Cascadia Mono', Menlo, monospace" font-size="12" fill="#3F7A4F">0</text>
<line x1="90" y1="267.5" x2="950" y2="267.5" stroke="#0E2A16"/>
<text x="78" y="271.5" text-anchor="end" font-family="ui-monospace, SFMono-Regular, 'Cascadia Mono', Menlo, monospace" font-size="12" fill="#3F7A4F">12</text>
<line x1="90" y1="205.0" x2="950" y2="205.0" stroke="#0E2A16"/>
<text x="78" y="209.0" text-anchor="end" font-family="ui-monospace, SFMono-Regular, 'Cascadia Mono', Menlo, monospace" font-size="12" fill="#3F7A4F">24</text>
<line x1="90" y1="142.5" x2="950" y2="142.5" stroke="#0E2A16"/>
<text x="78" y="146.5" text-anchor="end" font-family="ui-monospace, SFMono-Regular, 'Cascadia Mono', Menlo, monospace" font-size="12" fill="#3F7A4F">36</text>
<line x1="90" y1="80.0" x2="950" y2="80.0" stroke="#0E2A16"/>
<text x="78" y="84.0" text-anchor="end" font-family="ui-monospace, SFMono-Regular, 'Cascadia Mono', Menlo, monospace" font-size="12" fill="#3F7A4F">48</text>

<line x1="90.0" y1="80" x2="90.0" y2="330.0" stroke="#0E2A16"/>
<text x="90.0" y="354.0" text-anchor="middle" font-family="ui-monospace, SFMono-Regular, 'Cascadia Mono', Menlo, monospace" font-size="11" fill="#3F7A4F">Sep 1</text>




<line x1="233.3" y1="80" x2="233.3" y2="330.0" stroke="#0E2A16"/>
<text x="233.3" y="354.0" text-anchor="middle" font-family="ui-monospace, SFMono-Regular, 'Cascadia Mono', Menlo, monospace" font-size="11" fill="#3F7A4F">Sep 6</text>




<line x1="376.7" y1="80" x2="376.7" y2="330.0" stroke="#0E2A16"/>
<text x="376.7" y="354.0" text-anchor="middle" font-family="ui-monospace, SFMono-Regular, 'Cascadia Mono', Menlo, monospace" font-size="11" fill="#3F7A4F">Sep 11</text>




<line x1="520.0" y1="80" x2="520.0" y2="330.0" stroke="#0E2A16"/>
<text x="520.0" y="354.0" text-anchor="middle" font-family="ui-monospace, SFMono-Regular, 'Cascadia Mono', Menlo, monospace" font-size="11" fill="#3F7A4F">Sep 16</text>




<line x1="663.3" y1="80" x2="663.3" y2="330.0" stroke="#0E2A16"/>
<text x="663.3" y="354.0" text-anchor="middle" font-family="ui-monospace, SFMono-Regular, 'Cascadia Mono', Menlo, monospace" font-size="11" fill="#3F7A4F">Sep 21</text>




<line x1="806.7" y1="80" x2="806.7" y2="330.0" stroke="#0E2A16"/>
<text x="806.7" y="354.0" text-anchor="middle" font-family="ui-monospace, SFMono-Regular, 'Cascadia Mono', Menlo, monospace" font-size="11" fill="#3F7A4F">Sep 26</text>




<line x1="950.0" y1="80" x2="950.0" y2="330.0" stroke="#0E2A16"/>
<text x="950.0" y="354.0" text-anchor="middle" font-family="ui-monospace, SFMono-Regular, 'Cascadia Mono', Menlo, monospace" font-size="11" fill="#3F7A4F">Oct 1</text>

<g clip-path="url(#wipe)">
  <path d="M90.0,330.0C104.3,330.0 104.3,330.0 118.7,330.0C133.0,330.0 133.0,267.5 147.3,267.5C161.7,267.5 161.7,330.0 176.0,330.0C190.3,330.0 190.3,330.0 204.7,330.0C219.0,330.0 219.0,298.8 233.3,298.8C247.7,298.8 247.7,304.0 262.0,304.0C276.3,304.0 276.3,298.8 290.7,298.8C305.0,298.8 305.0,319.6 319.3,319.6C333.7,319.6 333.7,330.0 348.0,330.0C362.3,330.0 362.3,330.0 376.7,330.0C391.0,330.0 391.0,293.5 405.3,293.5C419.7,293.5 419.7,277.9 434.0,277.9C448.3,277.9 448.3,330.0 462.7,330.0C477.0,330.0 477.0,309.2 491.3,309.2C505.7,309.2 505.7,330.0 520.0,330.0C534.3,330.0 534.3,330.0 548.7,330.0C563.0,330.0 563.0,236.3 577.3,236.3C591.7,236.3 591.7,210.2 606.0,210.2C620.3,210.2 620.3,314.4 634.7,314.4C649.0,314.4 649.0,236.3 663.3,236.3C677.7,236.3 677.7,168.5 692.0,168.5C706.3,168.5 706.3,283.1 720.7,283.1C735.0,283.1 735.0,262.3 749.3,262.3C763.7,262.3 763.7,309.2 778.0,309.2C792.3,309.2 792.3,215.4 806.7,215.4C821.0,215.4 821.0,106.0 835.3,106.0C849.7,106.0 849.7,80.0 864.0,80.0C878.3,80.0 878.3,225.8 892.7,225.8C907.0,225.8 907.0,194.6 921.3,194.6C935.7,194.6 935.7,309.2 950.0,309.2L950.0,330.0L90,330.0Z" fill="url(#area)"/>
  <path d="M90.0,330.0C104.3,330.0 104.3,330.0 118.7,330.0C133.0,330.0 133.0,267.5 147.3,267.5C161.7,267.5 161.7,330.0 176.0,330.0C190.3,330.0 190.3,330.0 204.7,330.0C219.0,330.0 219.0,298.8 233.3,298.8C247.7,298.8 247.7,304.0 262.0,304.0C276.3,304.0 276.3,298.8 290.7,298.8C305.0,298.8 305.0,319.6 319.3,319.6C333.7,319.6 333.7,330.0 348.0,330.0C362.3,330.0 362.3,330.0 376.7,330.0C391.0,330.0 391.0,293.5 405.3,293.5C419.7,293.5 419.7,277.9 434.0,277.9C448.3,277.9 448.3,330.0 462.7,330.0C477.0,330.0 477.0,309.2 491.3,309.2C505.7,309.2 505.7,330.0 520.0,330.0C534.3,330.0 534.3,330.0 548.7,330.0C563.0,330.0 563.0,236.3 577.3,236.3C591.7,236.3 591.7,210.2 606.0,210.2C620.3,210.2 620.3,314.4 634.7,314.4C649.0,314.4 649.0,236.3 663.3,236.3C677.7,236.3 677.7,168.5 692.0,168.5C706.3,168.5 706.3,283.1 720.7,283.1C735.0,283.1 735.0,262.3 749.3,262.3C763.7,262.3 763.7,309.2 778.0,309.2C792.3,309.2 792.3,215.4 806.7,215.4C821.0,215.4 821.0,106.0 835.3,106.0C849.7,106.0 849.7,80.0 864.0,80.0C878.3,80.0 878.3,225.8 892.7,225.8C907.0,225.8 907.0,194.6 921.3,194.6C935.7,194.6 935.7,309.2 950.0,309.2" fill="none" stroke="#00FF41" stroke-width="2" stroke-linejoin="round" stroke-linecap="round"/>
  <circle cx="90.0" cy="330.0" r="3" fill="#000000" stroke="#00FF41" stroke-width="1.6"/><circle cx="118.7" cy="330.0" r="3" fill="#000000" stroke="#00FF41" stroke-width="1.6"/><circle cx="147.3" cy="267.5" r="3" fill="#000000" stroke="#00FF41" stroke-width="1.6"/><circle cx="176.0" cy="330.0" r="3" fill="#000000" stroke="#00FF41" stroke-width="1.6"/><circle cx="204.7" cy="330.0" r="3" fill="#000000" stroke="#00FF41" stroke-width="1.6"/><circle cx="233.3" cy="298.8" r="3" fill="#000000" stroke="#00FF41" stroke-width="1.6"/><circle cx="262.0" cy="304.0" r="3" fill="#000000" stroke="#00FF41" stroke-width="1.6"/><circle cx="290.7" cy="298.8" r="3" fill="#000000" stroke="#00FF41" stroke-width="1.6"/><circle cx="319.3" cy="319.6" r="3" fill="#000000" stroke="#00FF41" stroke-width="1.6"/><circle cx="348.0" cy="330.0" r="3" fill="#000000" stroke="#00FF41" stroke-width="1.6"/><circle cx="376.7" cy="330.0" r="3" fill="#000000" stroke="#00FF41" stroke-width="1.6"/><circle cx="405.3" cy="293.5" r="3" fill="#000000" stroke="#00FF41" stroke-width="1.6"/><circle cx="434.0" cy="277.9" r="3" fill="#000000" stroke="#00FF41" stroke-width="1.6"/><circle cx="462.7" cy="330.0" r="3" fill="#000000" stroke="#00FF41" stroke-width="1.6"/><circle cx="491.3" cy="309.2" r="3" fill="#000000" stroke="#00FF41" stroke-width="1.6"/><circle cx="520.0" cy="330.0" r="3" fill="#000000" stroke="#00FF41" stroke-width="1.6"/><circle cx="548.7" cy="330.0" r="3" fill="#000000" stroke="#00FF41" stroke-width="1.6"/><circle cx="577.3" cy="236.3" r="3" fill="#000000" stroke="#00FF41" stroke-width="1.6"/><circle cx="606.0" cy="210.2" r="3" fill="#000000" stroke="#00FF41" stroke-width="1.6"/><circle cx="634.7" cy="314.4" r="3" fill="#000000" stroke="#00FF41" stroke-width="1.6"/><circle cx="663.3" cy="236.3" r="3" fill="#000000" stroke="#00FF41" stroke-width="1.6"/><circle cx="692.0" cy="168.5" r="3" fill="#000000" stroke="#00FF41" stroke-width="1.6"/><circle cx="720.7" cy="283.1" r="3" fill="#000000" stroke="#00FF41" stroke-width="1.6"/><circle cx="749.3" cy="262.3" r="3" fill="#000000" stroke="#00FF41" stroke-width="1.6"/><circle cx="778.0" cy="309.2" r="3" fill="#000000" stroke="#00FF41" stroke-width="1.6"/><circle cx="806.7" cy="215.4" r="3" fill="#000000" stroke="#00FF41" stroke-width="1.6"/><circle cx="835.3" cy="106.0" r="3" fill="#000000" stroke="#00FF41" stroke-width="1.6"/><circle cx="864.0" cy="80.0" r="3" fill="#000000" stroke="#00FF41" stroke-width="1.6"/><circle cx="892.7" cy="225.8" r="3" fill="#000000" stroke="#00FF41" stroke-width="1.6"/><circle cx="921.3" cy="194.6" r="3" fill="#000000" stroke="#00FF41" stroke-width="1.6"/><circle cx="950.0" cy="309.2" r="3" fill="#000000" stroke="#00FF41" stroke-width="1.6"/>
</g>
</svg>
