<svg xmlns="http://www.w3.org/2000/svg" viewBox="0 0 1000 400" width="1000" height="400" role="img" aria-label="Shogo-nfrealmusic contribution graph, last 31 days">
<title>Shogo-nfrealmusic's contribution graph</title>
<defs>
  <linearGradient id="area" x1="0" y1="0" x2="0" y2="1">
    <stop offset="0" stop-color="#00FF41" stop-opacity="0.30"/>
    <stop offset="1" stop-color="#00FF41" stop-opacity="0.02"/>
  </linearGradient>
  <clipPath id="wipe"><rect x="0" y="0" width="0" height="400">
    <animate attributeName="width" from="0" to="1000" dur="1.5s" fill="freeze" calcMode="spline" keySplines="0.16 1 0.3 1" keyTimes="0;1"/>
  </rect></clipPath>
</defs>

<rect width="1000" height="400" rx="6" fill="#000000" stroke="#123D1E"/>

<text x="35" y="45" font-family="'Segoe UI', Ubuntu, Helvetica, Arial, sans-serif" font-size="24" font-weight="600" fill="#00FF41">Shogo-nfrealmusic's contribution graph</text>
<text x="35" y="66" font-family="ui-monospace, SFMono-Regular, 'Cascadia Mono', Menlo, monospace" font-size="12" letter-spacing="0.5" fill="#3F7A4F">LAST 31 DAYS</text>

<text transform="translate(28,205) rotate(-90)" text-anchor="middle" font-family="'Segoe UI', Ubuntu, Helvetica, Arial, sans-serif" font-size="13" fill="#3F7A4F">Contributions</text>
<text x="520" y="382" text-anchor="middle" font-family="'Segoe UI', Ubuntu, Helvetica, Arial, sans-serif" font-size="13" fill="#3F7A4F">Days</text>

<line x1="90" y1="330.0" x2="950" y2="330.0" stroke="#0E2A16"/>
<text x="78" y="334.0" text-anchor="end" font-family="ui-monospace, SFMono-Regular, 'Cascadia Mono', Menlo, monospace" font-size="12" fill="#3F7A4F">0</text>
<line x1="90" y1="267.5" x2="950" y2="267.5" stroke="#0E2A16"/>
<text x="78" y="271.5" text-anchor="end" font-family="ui-monospace, SFMono-Regular, 'Cascadia Mono', Menlo, monospace" font-size="12" fill="#3F7A4F">8</text>
<line x1="90" y1="205.0" x2="950" y2="205.0" stroke="#0E2A16"/>
<text x="78" y="209.0" text-anchor="end" font-family="ui-monospace, SFMono-Regular, 'Cascadia Mono', Menlo, monospace" font-size="12" fill="#3F7A4F">16</text>
<line x1="90" y1="142.5" x2="950" y2="142.5" stroke="#0E2A16"/>
<text x="78" y="146.5" text-anchor="end" font-family="ui-monospace, SFMono-Regular, 'Cascadia Mono', Menlo, monospace" font-size="12" fill="#3F7A4F">24</text>
<line x1="90" y1="80.0" x2="950" y2="80.0" stroke="#0E2A16"/>
<text x="78" y="84.0" text-anchor="end" font-family="ui-monospace, SFMono-Regular, 'Cascadia Mono', Menlo, monospace" font-size="12" fill="#3F7A4F">32</text>

<line x1="90.0" y1="80" x2="90.0" y2="330.0" stroke="#0E2A16"/>
<text x="90.0" y="354.0" text-anchor="middle" font-family="ui-monospace, SFMono-Regular, 'Cascadia Mono', Menlo, monospace" font-size="11" fill="#3F7A4F">Aug 26</text>




<line x1="233.3" y1="80" x2="233.3" y2="330.0" stroke="#0E2A16"/>
<text x="233.3" y="354.0" text-anchor="middle" font-family="ui-monospace, SFMono-Regular, 'Cascadia Mono', Menlo, monospace" font-size="11" fill="#3F7A4F">Aug 31</text>




<line x1="376.7" y1="80" x2="376.7" y2="330.0" stroke="#0E2A16"/>
<text x="376.7" y="354.0" text-anchor="middle" font-family="ui-monospace, SFMono-Regular, 'Cascadia Mono', Menlo, monospace" font-size="11" fill="#3F7A4F">Sep 5</text>




<line x1="520.0" y1="80" x2="520.0" y2="330.0" stroke="#0E2A16"/>
<text x="520.0" y="354.0" text-anchor="middle" font-family="ui-monospace, SFMono-Regular, 'Cascadia Mono', Menlo, monospace" font-size="11" fill="#3F7A4F">Sep 10</text>




<line x1="663.3" y1="80" x2="663.3" y2="330.0" stroke="#0E2A16"/>
<text x="663.3" y="354.0" text-anchor="middle" font-family="ui-monospace, SFMono-Regular, 'Cascadia Mono', Menlo, monospace" font-size="11" fill="#3F7A4F">Sep 15</text>




<line x1="806.7" y1="80" x2="806.7" y2="330.0" stroke="#0E2A16"/>
<text x="806.7" y="354.0" text-anchor="middle" font-family="ui-monospace, SFMono-Regular, 'Cascadia Mono', Menlo, monospace" font-size="11" fill="#3F7A4F">Sep 20</text>




<line x1="950.0" y1="80" x2="950.0" y2="330.0" stroke="#0E2A16"/>
<text x="950.0" y="354.0" text-anchor="middle" font-family="ui-monospace, SFMono-Regular, 'Cascadia Mono', Menlo, monospace" font-size="11" fill="#3F7A4F">Sep 25</text>

<g clip-path="url(#wipe)">
  <path d="M90.0,228.4C104.3,228.4 104.3,290.9 118.7,290.9C133.0,290.9 133.0,330.0 147.3,330.0C161.7,330.0 161.7,275.3 176.0,275.3C190.3,275.3 190.3,275.3 204.7,275.3C219.0,275.3 219.0,330.0 233.3,330.0C247.7,330.0 247.7,330.0 262.0,330.0C276.3,330.0 276.3,330.0 290.7,330.0C305.0,330.0 305.0,236.3 319.3,236.3C333.7,236.3 333.7,330.0 348.0,330.0C362.3,330.0 362.3,330.0 376.7,330.0C391.0,330.0 391.0,283.1 405.3,283.1C419.7,283.1 419.7,290.9 434.0,290.9C448.3,290.9 448.3,283.1 462.7,283.1C477.0,283.1 477.0,314.4 491.3,314.4C505.7,314.4 505.7,330.0 520.0,330.0C534.3,330.0 534.3,330.0 548.7,330.0C563.0,330.0 563.0,275.3 577.3,275.3C591.7,275.3 591.7,251.9 606.0,251.9C620.3,251.9 620.3,330.0 634.7,330.0C649.0,330.0 649.0,298.8 663.3,298.8C677.7,298.8 677.7,330.0 692.0,330.0C706.3,330.0 706.3,330.0 720.7,330.0C735.0,330.0 735.0,189.4 749.3,189.4C763.7,189.4 763.7,150.3 778.0,150.3C792.3,150.3 792.3,306.6 806.7,306.6C821.0,306.6 821.0,189.4 835.3,189.4C849.7,189.4 849.7,87.8 864.0,87.8C878.3,87.8 878.3,259.7 892.7,259.7C907.0,259.7 907.0,228.4 921.3,228.4C935.7,228.4 935.7,298.8 950.0,298.8L950.0,330.0L90,330.0Z" fill="url(#area)"/>
  <path d="M90.0,228.4C104.3,228.4 104.3,290.9 118.7,290.9C133.0,290.9 133.0,330.0 147.3,330.0C161.7,330.0 161.7,275.3 176.0,275.3C190.3,275.3 190.3,275.3 204.7,275.3C219.0,275.3 219.0,330.0 233.3,330.0C247.7,330.0 247.7,330.0 262.0,330.0C276.3,330.0 276.3,330.0 290.7,330.0C305.0,330.0 305.0,236.3 319.3,236.3C333.7,236.3 333.7,330.0 348.0,330.0C362.3,330.0 362.3,330.0 376.7,330.0C391.0,330.0 391.0,283.1 405.3,283.1C419.7,283.1 419.7,290.9 434.0,290.9C448.3,290.9 448.3,283.1 462.7,283.1C477.0,283.1 477.0,314.4 491.3,314.4C505.7,314.4 505.7,330.0 520.0,330.0C534.3,330.0 534.3,330.0 548.7,330.0C563.0,330.0 563.0,275.3 577.3,275.3C591.7,275.3 591.7,251.9 606.0,251.9C620.3,251.9 620.3,330.0 634.7,330.0C649.0,330.0 649.0,298.8 663.3,298.8C677.7,298.8 677.7,330.0 692.0,330.0C706.3,330.0 706.3,330.0 720.7,330.0C735.0,330.0 735.0,189.4 749.3,189.4C763.7,189.4 763.7,150.3 778.0,150.3C792.3,150.3 792.3,306.6 806.7,306.6C821.0,306.6 821.0,189.4 835.3,189.4C849.7,189.4 849.7,87.8 864.0,87.8C878.3,87.8 878.3,259.7 892.7,259.7C907.0,259.7 907.0,228.4 921.3,228.4C935.7,228.4 935.7,298.8 950.0,298.8" fill="none" stroke="#00FF41" stroke-width="2" stroke-linejoin="round" stroke-linecap="round"/>
  <circle cx="90.0" cy="228.4" r="3" fill="#000000" stroke="#00FF41" stroke-width="1.6"/><circle cx="118.7" cy="290.9" r="3" fill="#000000" stroke="#00FF41" stroke-width="1.6"/><circle cx="147.3" cy="330.0" r="3" fill="#000000" stroke="#00FF41" stroke-width="1.6"/><circle cx="176.0" cy="275.3" r="3" fill="#000000" stroke="#00FF41" stroke-width="1.6"/><circle cx="204.7" cy="275.3" r="3" fill="#000000" stroke="#00FF41" stroke-width="1.6"/><circle cx="233.3" cy="330.0" r="3" fill="#000000" stroke="#00FF41" stroke-width="1.6"/><circle cx="262.0" cy="330.0" r="3" fill="#000000" stroke="#00FF41" stroke-width="1.6"/><circle cx="290.7" cy="330.0" r="3" fill="#000000" stroke="#00FF41" stroke-width="1.6"/><circle cx="319.3" cy="236.3" r="3" fill="#000000" stroke="#00FF41" stroke-width="1.6"/><circle cx="348.0" cy="330.0" r="3" fill="#000000" stroke="#00FF41" stroke-width="1.6"/><circle cx="376.7" cy="330.0" r="3" fill="#000000" stroke="#00FF41" stroke-width="1.6"/><circle cx="405.3" cy="283.1" r="3" fill="#000000" stroke="#00FF41" stroke-width="1.6"/><circle cx="434.0" cy="290.9" r="3" fill="#000000" stroke="#00FF41" stroke-width="1.6"/><circle cx="462.7" cy="283.1" r="3" fill="#000000" stroke="#00FF41" stroke-width="1.6"/><circle cx="491.3" cy="314.4" r="3" fill="#000000" stroke="#00FF41" stroke-width="1.6"/><circle cx="520.0" cy="330.0" r="3" fill="#000000" stroke="#00FF41" stroke-width="1.6"/><circle cx="548.7" cy="330.0" r="3" fill="#000000" stroke="#00FF41" stroke-width="1.6"/><circle cx="577.3" cy="275.3" r="3" fill="#000000" stroke="#00FF41" stroke-width="1.6"/><circle cx="606.0" cy="251.9" r="3" fill="#000000" stroke="#00FF41" stroke-width="1.6"/><circle cx="634.7" cy="330.0" r="3" fill="#000000" stroke="#00FF41" stroke-width="1.6"/><circle cx="663.3" cy="298.8" r="3" fill="#000000" stroke="#00FF41" stroke-width="1.6"/><circle cx="692.0" cy="330.0" r="3" fill="#000000" stroke="#00FF41" stroke-width="1.6"/><circle cx="720.7" cy="330.0" r="3" fill="#000000" stroke="#00FF41" stroke-width="1.6"/><circle cx="749.3" cy="189.4" r="3" fill="#000000" stroke="#00FF41" stroke-width="1.6"/><circle cx="778.0" cy="150.3" r="3" fill="#000000" stroke="#00FF41" stroke-width="1.6"/><circle cx="806.7" cy="306.6" r="3" fill="#000000" stroke="#00FF41" stroke-width="1.6"/><circle cx="835.3" cy="189.4" r="3" fill="#000000" stroke="#00FF41" stroke-width="1.6"/><circle cx="864.0" cy="87.8" r="3" fill="#000000" stroke="#00FF41" stroke-width="1.6"/><circle cx="892.7" cy="259.7" r="3" fill="#000000" stroke="#00FF41" stroke-width="1.6"/><circle cx="921.3" cy="228.4" r="3" fill="#000000" stroke="#00FF41" stroke-width="1.6"/><circle cx="950.0" cy="298.8" r="3" fill="#000000" stroke="#00FF41" stroke-width="1.6"/>
</g>
</svg>
